<svg xmlns="http://www.w3.org/2000/svg" id="a" viewBox="0 0 1000 1000">
  <defs>
    <style>
      .c{fill:none;stroke-linejoin:round;stroke-width:8px;stroke:#000}
    </style>
  </defs>
  <path fill="#fff" stroke-width="0" d="M4 4h992v992H4z"/>
  <path fill="#42cc33" stroke-width="0" d="M992 8v984H8V8zm8-8H0v1000h1000z"/>
  <path d="M-.06 500h497.81v64.3" class="c"/>
  <path stroke-width="0" d="m457.86 552.63 39.89 69.08 39.89-69.08z"/>
  <path d="M799.75 500h199.5M199.36 380h601.02v365.07H199.36z" class="c"/>
  <path fill="none" stroke="#8f8f8f" stroke-linejoin="round" stroke-width="8" d="M102.08 845.28h340.1"/>
  <path fill="#8f8f8f" stroke-width="0" d="m430.5 885.17 69.09-39.89-69.09-39.9z"/>
  <path d="M273.6 659.86v84.26m89.48-84.26v84.26m89.48-84.26v84.26m89.48-84.26v84.26m89.48-84.26v84.26M721 659.86v84.26" class="c"/>
</svg>
